<svg aria-hidden="true" style="width:0;height:0;position:absolute;overflow:hidden" xmlns="http://www.w3.org/2000/svg"><defs><symbol id="icon-logo-white" viewBox="0 0 85 32"><path fill="#fff" style="fill:var(--color1,#fff)" d="M11.933 4.825v12.913H8.385v-5.036H3.547v5.036H-.001V4.825h3.548v4.851h4.838V4.825h3.548zM24.918 12.757c0 .025-.018.314-.054.867h-7.06c.143.516.418.916.824 1.199.418.271.938.406 1.559.406.466 0 .866-.068 1.2-.203a3.513 3.513 0 0 0 1.039-.664l1.792 1.919c-.944 1.082-2.323 1.623-4.139 1.623-1.135 0-2.132-.221-2.992-.664s-1.529-1.058-2.007-1.845c-.466-.787-.699-1.679-.699-2.675 0-.984.227-1.863.681-2.638.466-.787 1.105-1.402 1.917-1.845s1.726-.664 2.741-.664c.968 0 1.846.209 2.634.627a4.482 4.482 0 0 1 1.863 1.789c.466.775.699 1.697.699 2.767zm-5.179-2.693c-.526 0-.968.154-1.326.461-.346.307-.567.726-.663 1.254h3.978c-.096-.529-.323-.947-.681-1.254-.346-.307-.782-.461-1.308-.461zM27.204 4.05h3.404v13.688h-3.404V4.05zM33.538 4.05h3.404v13.688h-3.404V4.05z"/><path fill="#ff6b09" style="fill:var(--color2,#ff6b09)" d="M3.003 27.011h.864v3.733h-.864v-3.733zm-1.696 3.733H.443v-3.733h.864v3.733zm1.76-1.53H1.243v-.731h1.824v.731zm3.438-.699h1.797v.672H6.505v-.672zm.064 1.536h2.032v.693H5.71v-3.733h2.821v.693H6.568v2.347zm3.679.693v-3.733h.864v3.029h1.872v.704h-2.736zm4.179 0v-3.733h.864v3.029h1.872v.704h-2.736zm4.179 0v-3.733h.864v3.733h-.864zm3.936.064a3.12 3.12 0 0 1-.859-.117 2.045 2.045 0 0 1-.661-.315l.293-.651a2.164 2.164 0 0 0 1.232.39c.171 0 .308-.016.411-.048.107-.036.185-.084.235-.144s.075-.13.075-.208c0-.1-.039-.178-.117-.235a.906.906 0 0 0-.309-.144 4.66 4.66 0 0 0-.427-.107 6.083 6.083 0 0 1-.464-.128c-.153-.05-.293-.114-.421-.192s-.233-.181-.315-.309a.932.932 0 0 1-.117-.491c0-.213.057-.407.171-.581.117-.178.292-.318.523-.421.235-.107.528-.16.88-.16.235 0 .466.028.693.085.228.053.428.135.603.245l-.267.656a2.183 2.183 0 0 0-1.035-.294c-.167 0-.304.02-.411.059a.47.47 0 0 0-.229.155.342.342 0 0 0-.069.213c0 .096.039.174.117.235.078.057.181.103.309.139s.268.071.421.107c.156.036.311.076.464.123.156.046.299.108.427.187s.231.181.309.309c.082.128.123.29.123.485 0 .21-.059.402-.176.576s-.293.315-.528.421c-.231.107-.524.16-.88.16zm5.695-3.797h.864v3.733h-.864v-3.733zm-1.696 3.733h-.864v-3.733h.864v3.733zm1.76-1.53h-1.824v-.731h1.824v.731z"/><path fill="#fff" style="fill:var(--color1,#fff)" d="M34.209 28.515h1.797v.672h-1.797v-.672zm.064 1.536h2.032v.693h-2.891v-3.733h2.821v.693h-1.963v2.347zm3.679.693v-3.733h.715l2.203 2.688h-.347v-2.688h.853v3.733h-.709l-2.208-2.688h.347v2.688h-.853zm7.07.064c-.295 0-.567-.046-.816-.139a1.992 1.992 0 0 1-.645-.405 1.91 1.91 0 0 1-.427-.613c-.1-.235-.149-.492-.149-.773s.05-.539.149-.773c.103-.235.247-.439.432-.613s.402-.308.651-.4c.249-.096.523-.144.821-.144.331 0 .628.055.891.165.267.11.491.27.672.48l-.555.512a1.33 1.33 0 0 0-.443-.315 1.274 1.274 0 0 0-.523-.107c-.181 0-.347.028-.496.085s-.279.139-.389.245c-.107.107-.19.233-.251.379a1.324 1.324 0 0 0-.085.485c0 .174.028.334.085.48a1.2 1.2 0 0 0 .251.384c.11.107.238.188.384.245.149.057.313.085.491.085.171 0 .336-.027.496-.08.164-.057.322-.151.475-.283l.491.624c-.203.153-.439.27-.709.352a2.71 2.71 0 0 1-.8.123zm.72-.586v-1.403h.789v1.515l-.789-.112zm2.552.522v-3.733h.864v3.029h1.872v.704h-2.736zm4.179 0v-3.733h.864v3.733h-.864zm3.937.064a3.12 3.12 0 0 1-.859-.117 2.045 2.045 0 0 1-.661-.315l.293-.651a2.164 2.164 0 0 0 1.232.39c.171 0 .308-.016.411-.048.107-.036.185-.084.235-.144s.075-.13.075-.208c0-.1-.039-.178-.117-.235a.906.906 0 0 0-.309-.144 4.66 4.66 0 0 0-.427-.107 6.083 6.083 0 0 1-.464-.128c-.153-.05-.293-.114-.421-.192s-.233-.181-.315-.309a.932.932 0 0 1-.117-.491c0-.213.057-.407.171-.581.117-.178.292-.318.523-.421.235-.107.528-.16.88-.16.235 0 .466.028.693.085.228.053.428.135.603.245l-.267.656a2.183 2.183 0 0 0-1.035-.294c-.167 0-.304.02-.411.059a.47.47 0 0 0-.229.155.342.342 0 0 0-.069.213c0 .096.039.174.117.235.078.057.181.103.309.139s.268.071.421.107c.156.036.311.076.464.123.156.046.299.108.427.187s.231.181.309.309c.082.128.123.29.123.485 0 .21-.059.402-.176.576s-.293.315-.528.421c-.231.107-.524.16-.88.16zm5.694-3.797h.864v3.733h-.864v-3.733zm-1.696 3.733h-.864v-3.733h.864v3.733zm1.76-1.53h-1.824v-.731h1.824v.731zM70.715 14.915v2.822h-10.07V4.824h9.837v2.822h-6.325v2.177h5.572v2.73h-5.572v2.361h6.558zM85.333 4.824v12.913h-2.921l-5.537-6.881v6.881h-3.476V4.824h2.921l5.537 6.881V4.824h3.476z"/><path fill="#ff6b09" style="fill:var(--color2,#ff6b09)" d="M55.628 11.037c-.183-.423-.436-.839-.805-1.319-.932-1.206-1.216-3.896-1.219-3.922a.323.323 0 0 0-.218-.274.314.314 0 0 0-.335.094c-1.112 1.28-.644 3.257-.392 4.047.069.216.145.471.199.729.411 2.087-.382 3.031-.569 3.222-.18.052-.303.026-.417-.1-.392-.442-.521-1.89-.338-3.776a3.995 3.995 0 0 0-.025-1.051c-.386-2.319-1.803-3.806-2.164-4.328C48.353 2.85 48.252.337 48.249.315a.316.316 0 0 0-.174-.277.306.306 0 0 0-.319.023c-1.655 1.158-1.513 3.947-1.282 5.505.054.361.158.729.338 1.193.641 1.661-.126 3.805-.133 3.825s-.013.035-.016.055c-.098.529-.262.845-.445.845a.193.193 0 0 1-.06-.01c-.224-.048-.341-.293-.344-.506-.013-2.751-2.694-3.676-2.723-3.686a.308.308 0 0 0-.335.097.325.325 0 0 0-.044.355c.032.068.133.364.063 1.413-.06.942-.227 1.874-.496 2.767a13.88 13.88 0 0 0-.531 4.267c.491 5.492 8.163 6.455 12.716 3.36a4.672 4.672 0 0 0 1.206-1.151c1.68-2.386.692-5.628-.044-7.35zm-11.671 5.247a.32.32 0 0 1-.297.339h-.019a.319.319 0 0 1-.316-.303c-.028-.471-.022-.964.013-1.5a.322.322 0 0 1 .338-.3.323.323 0 0 1 .294.345c-.035.51-.041.974-.013 1.419zm.155-2.858a.317.317 0 0 1-.313.284c-.013 0-.025 0-.041-.003a.324.324 0 0 1-.275-.358l.152-1.245a.321.321 0 0 1 .354-.281.322.322 0 0 1 .275.361l-.152 1.242zM53.492 4.412a.322.322 0 0 1-.264-.368c.02-.131.134-.802.444-1.139.119-.13.319-.137.447-.015s.134.326.014.456c-.131.143-.243.552-.28.796a.317.317 0 0 1-.361.269zM41.976 6.018c-.06-.24-.211-.635-.355-.764-.131-.117-.144-.321-.029-.455s.314-.148.446-.03c.34.305.518.961.55 1.089a.323.323 0 0 1-.227.392.316.316 0 0 1-.385-.232z"/></symbol><symbol id="icon-logo" viewBox="0 0 91 32"><path fill="#111518" style="fill:var(--color1,#111518)" d="M13.608 4.836v12.942H9.947v-5.047H4.955v5.047H1.294V4.836h3.661v4.863h4.992V4.836h3.661zm13.398 7.95c0 .025-.018.314-.055.869h-7.285c.148.518.431.918.851 1.202.431.271.968.407 1.609.407.481 0 .894-.068 1.239-.203a3.63 3.63 0 0 0 1.072-.666l1.849 1.923c-.974 1.085-2.397 1.627-4.271 1.627-1.171 0-2.2-.222-3.088-.666s-1.578-1.06-2.071-1.849c-.481-.789-.721-1.683-.721-2.681 0-.986.234-1.867.703-2.644.481-.789 1.14-1.405 1.978-1.849s1.781-.666 2.829-.666c.998 0 1.904.21 2.718.629a4.58 4.58 0 0 1 1.923 1.793c.481.777.721 1.701.721 2.773zm-5.343-2.7c-.542 0-.998.154-1.368.462-.357.308-.586.727-.684 1.257h4.105c-.099-.53-.333-.949-.703-1.257-.357-.308-.807-.462-1.35-.462zm7.702-6.027h3.513v13.719h-3.513V4.059zm6.536 0h3.513v13.719h-3.513V4.059z"/><path fill="#ff6b09" style="fill:var(--color2,#ff6b09)" d="M5.547 26.596v3.982h-.922v-1.633H2.816v1.633h-.922v-3.982h.922v1.57h1.809v-1.57h.922zm5.049 3.242v.74H7.513v-3.982h3.009v.74H8.428v.865h1.849v.717H8.428v.922h2.167zm1.758-3.242h.922v3.231h1.997v.751h-2.918v-3.982zm4.457 0h.922v3.231h1.997v.751h-2.918v-3.982zm4.457 0h.922v3.982h-.922v-3.982zm4.199 4.05c-.315 0-.62-.042-.916-.125a2.163 2.163 0 0 1-.705-.336l.313-.694c.171.125.374.226.609.302s.47.114.705.114c.262 0 .455-.038.58-.114.125-.08.188-.184.188-.313a.284.284 0 0 0-.114-.233.79.79 0 0 0-.284-.154 5.18 5.18 0 0 0-.466-.125c-.303-.072-.552-.144-.745-.216s-.36-.188-.501-.347c-.137-.159-.205-.372-.205-.637 0-.231.063-.44.188-.626.125-.19.313-.339.563-.449.254-.11.563-.165.927-.165.254 0 .502.03.745.091s.455.148.637.262l-.284.7a2.218 2.218 0 0 0-1.104-.313c-.258 0-.449.042-.575.125-.121.083-.182.193-.182.33s.07.239.21.307c.144.064.362.129.654.193.303.072.552.144.745.216s.358.186.495.341c.14.156.21.366.21.631 0 .228-.064.436-.193.626-.125.186-.315.334-.569.444s-.563.165-.927.165zm6.996-4.05v3.982h-.922v-1.633h-1.809v1.633h-.922v-3.982h.922v1.57h1.809v-1.57h.922z"/><path fill="#111518" style="fill:var(--color1,#111518)" d="M40.148 29.838v.74h-3.083v-3.982h3.009v.74h-2.093v.865h1.849v.717h-1.849v.922h2.167zm5.409-3.242v3.982H44.8l-1.985-2.418v2.418h-.91v-3.982h.762l1.98 2.418v-2.418h.91zm4.657 1.928h.842v1.616c-.216.163-.467.288-.751.375s-.571.131-.859.131c-.413 0-.785-.087-1.115-.262a2.01 2.01 0 0 1-.779-.734c-.186-.315-.279-.669-.279-1.064s.093-.747.279-1.058c.19-.315.451-.559.785-.734a2.355 2.355 0 0 1 1.126-.267c.349 0 .666.059.95.176s.523.288.717.512l-.592.546a1.367 1.367 0 0 0-1.03-.449c-.254 0-.48.053-.677.159s-.351.256-.461.449c-.11.193-.165.415-.165.666 0 .247.055.466.165.66s.262.345.455.455c.197.106.421.159.671.159.266 0 .504-.057.717-.171v-1.166zm2.722-1.928h.922v3.231h1.997v.751h-2.918v-3.982zm4.458 0h.922v3.982h-.922v-3.982zm4.199 4.05c-.315 0-.62-.042-.916-.125a2.163 2.163 0 0 1-.705-.336l.313-.694c.171.125.374.226.609.302s.47.114.705.114c.262 0 .455-.038.58-.114.125-.08.188-.184.188-.313a.284.284 0 0 0-.114-.233.79.79 0 0 0-.284-.154 5.125 5.125 0 0 0-.467-.125c-.303-.072-.552-.144-.745-.216s-.36-.188-.501-.347c-.137-.159-.205-.372-.205-.637 0-.231.063-.44.188-.626.125-.19.313-.339.563-.449.254-.11.563-.165.927-.165.254 0 .503.03.745.091s.455.148.637.262l-.284.7a2.218 2.218 0 0 0-1.104-.313c-.258 0-.449.042-.575.125-.121.083-.182.193-.182.33s.07.239.211.307c.144.064.362.129.654.193.303.072.552.144.745.216s.358.186.495.341c.14.156.211.366.211.631 0 .228-.064.436-.193.626-.125.186-.315.334-.569.444s-.563.165-.927.165zm6.995-4.05v3.982h-.922v-1.633h-1.809v1.633h-.922v-3.982h.922v1.57h1.809v-1.57h.922zm5.675-11.647v2.829H63.872V4.836h10.15v2.829h-6.527v2.182h5.75v2.736h-5.75v2.367h6.767zM89.348 4.836v12.942h-3.014l-5.713-6.896v6.896h-3.587V4.836h3.014l5.713 6.896V4.836h3.587z"/><path fill="#ff6b09" style="fill:var(--color2,#ff6b09)" d="M58.695 11.062c-.189-.423-.45-.84-.831-1.322-.962-1.209-1.255-3.905-1.258-3.931a.326.326 0 0 0-.225-.275.33.33 0 0 0-.345.094c-1.147 1.283-.665 3.265-.404 4.057.072.217.15.472.205.731.424 2.091-.394 3.038-.587 3.229-.186.052-.313.026-.43-.1-.404-.443-.538-1.894-.349-3.785a3.89 3.89 0 0 0-.026-1.054c-.399-2.324-1.86-3.815-2.233-4.338C51.189 2.855 51.084.337 51.081.315a.324.324 0 0 0-.508-.255c-1.708 1.16-1.561 3.956-1.323 5.518.055.362.163.731.349 1.196.662 1.665-.13 3.814-.137 3.834s-.013.036-.016.055c-.101.53-.271.847-.46.847a.205.205 0 0 1-.062-.01c-.231-.049-.352-.294-.355-.507-.013-2.757-2.78-3.685-2.809-3.695a.323.323 0 0 0-.345.097.32.32 0 0 0-.046.356c.033.068.137.365.065 1.416a12.072 12.072 0 0 1-.512 2.773 13.547 13.547 0 0 0-.548 4.276c.506 5.505 8.423 6.469 13.122 3.368a4.742 4.742 0 0 0 1.245-1.154c1.734-2.392.714-5.64-.046-7.366zm-12.043 5.259a.322.322 0 0 1-.306.339h-.02a.325.325 0 0 1-.326-.304c-.029-.472-.023-.966.013-1.503a.326.326 0 0 1 .652.045c-.036.511-.042.976-.013 1.422zm.16-2.864a.323.323 0 0 1-.323.284c-.013 0-.026 0-.042-.003a.327.327 0 0 1-.284-.359l.156-1.248a.328.328 0 0 1 .365-.281.326.326 0 0 1 .284.362l-.156 1.245zm9.678-9.035a.322.322 0 0 1-.272-.368c.02-.131.138-.804.458-1.142.123-.13.329-.137.461-.015s.138.327.015.457c-.135.143-.25.553-.289.798a.326.326 0 0 1-.372.27zm-11.882 1.61c-.062-.24-.217-.637-.366-.766-.135-.118-.149-.322-.03-.456s.324-.148.46-.03c.351.305.535.963.568 1.092a.322.322 0 0 1-.235.393.327.327 0 0 1-.397-.232z"/></symbol><symbol id="icon-menu" viewBox="0 0 23 14"><path d="M1 1h21M1 7h21M1 13h21" stroke="#000" stroke-width="2" stroke-linecap="round"/></symbol><symbol id="icon-close" viewBox="0 0 17 18"><path d="M1.002 16.248 15.498 1.752m0 14.496L1.002 1.752" stroke="#fff" stroke-width="2" stroke-linecap="round"/></symbol><symbol id="icon-advantages-1" viewBox="0 0 32 32"><path fill="#ff6b09" style="fill:var(--color1,#ff6b09)" d="M7.262 25.806h16.976c.084-1.981-.055-5.269-1.245-6.833l-.043-.056-2.601-1.337c.056-.195.084-.374.095-.505a.944.944 0 0 0-.063-.44c-.429-1.051-1.337-1.604-1.837-1.839.152-.314.25-.651.298-.995a.847.847 0 0 0 .585-.617l.304-1.262a.868.868 0 0 0-.282-.867c.856-1.99-.578-3.866-.656-3.965-1.553-1.718-3.514-1.397-3.618-1.378-2.83.607-3.923 2.827-3.306 5.431a.871.871 0 0 0-.192.779l.305 1.264c.074.304.3.532.58.615.087.63.347 1.201.73 1.66v1.001c-4.062 2.129-1.488.771-4.743 2.456-.006.031-1.527 1.686-1.301 6.589l.014.3zm16.386-.629h-2.794v-1.201l1.848-4.329c.926 1.572.96 4.575.946 5.53zm-3.813-8.155c-.108 1.268-.787.884-1.206 1.861-.33-.371-.429-.816-.34-1.293.16-.875-.362-1.134-.233-2.054l.02-.021v-.003c.011-.013.114-.138.144-.178 1.105.493 1.638 1.41 1.616 1.687zm-5.93-.996a3.089 3.089 0 0 0 3.533.048c.071.723.347.867.249 1.399a2.491 2.491 0 0 0-.034.292L15.75 19.96l-2.432-2.806.587-.314v-.814zm-.765-2.686V9.985c.296-.56.7-.967 1.201-1.211 1.344.778 2.89 1.939 3.928 3.108-.001 1.488.004 1.492-.006 1.615l-.001.008c-.081 1.351-1.167 2.472-2.559 2.472-1.354 0-2.477-1.088-2.559-2.485-.004-.05-.005-.1-.005-.151zm-.379 4.117 2.989 3.449 2.007-2.315c.046.135.11.263.184.386L15.75 21.78l-3.266-4.181.277-.143zm6.12-4.623v-.972l.228-.268c.013.492.064-.089-.228 1.239zm-3.592-6.503c.121.008 1.752-.254 3.042 1.17.051.065 1.1 1.449.679 2.963-.144-.674-.396-1.537-.793-1.949l-.434.443c.392.407.65 1.646.748 2.288-1.8-1.928-4.122-3.148-4.154-3.169-.116.074-1.099.265-1.813 1.685l-.034.068v1.043l-.09.001c-.453-2.241.415-4.021 2.85-4.543zm-2.915 5.19.154.64v.673l-.257-1.063c-.038-.158.077-.219.102-.25zm-.45 6.366 3.826 4.898 2.589-3.314c.282.258.417.295 1.014.609l-.201-.699c-.051-.177.151-.462.273-.593.273-.151.5-.367.67-.634l2.112 1.086-1.966 4.605v1.333h-8.984v-1.333L9.291 19.24l2.632-1.352zm-3.126 1.761 1.848 4.328v1.201H7.852c-.014-.955.021-3.956.946-5.529z"/><path fill="none" stroke="#ff6b09" stroke-width="1.032" style="stroke:var(--color1,#ff6b09)" d="M31.484 4.767V.517H.516v30.968h30.968v-4.25"/></symbol><symbol id="icon-advantages-2" viewBox="0 0 32 32"><path fill="#ff6b09" style="fill:var(--color1,#ff6b09)" d="M25.269 5.161H14.825c-.68 0-1.233.551-1.233 1.229v4.31l-7.759 3.247a.252.252 0 0 0-.032.448l.99.59v6.292a1.138 1.138 0 0 0-.886 1.107v.607c0 .139.113.252.253.252H7.93a.253.253 0 0 0 .253-.252v-.607c0-.54-.38-.99-.886-1.106v-5.991l.782.467c-.024.18-.003-.313-.011 2.929 0 1.066 2.739 1.637 5.525 1.67v4.91a1.233 1.233 0 0 0 1.232 1.227h10.444c.679 0 1.232-.551 1.232-1.228V6.389c0-.669-.555-1.229-1.231-1.229zM7.676 22.385v.355H6.409v-.355a.633.633 0 1 1 1.267 0zm17.593 3.602H14.825a.728.728 0 0 1-.727-.723v-1.702h11.896v1.703a.73.73 0 0 1-.725.722zm.725-2.929H14.097v-2.702c1.361-.016 5.529-.314 5.529-1.671-.002-2.037.004-2.863-.006-2.933l2.269-1.355a.25.25 0 0 0-.032-.448l-7.759-3.247V8.598h11.897v14.461zm-12.15-6.046c-1.402 0-4.1.18-5.273.944.007-2.335-.081-2.182.207-2.38.728-.535 2.811-.908 5.066-.908.983 0 5.276.27 5.276 1.176v2.113c-1.183-.77-3.868-.944-5.276-.944zm.254-10.621c0-.399.326-.724.726-.724h10.444c.401 0 .725.33.725.724v1.702H14.097V6.391zm-.254 4.75 7.356 3.078-1.823 1.087c-.969-.958-4.175-1.144-5.533-1.144-1.361 0-4.566.186-5.533 1.144l-1.823-1.088 7.357-3.078zm-5.272 7.543c0-.408 1.811-1.169 5.273-1.169 3.464 0 5.276.761 5.276 1.169s-1.812 1.169-5.276 1.169c-3.462 0-5.273-.761-5.273-1.169z"/><path fill="#ff6b09" style="fill:var(--color1,#ff6b09)" d="M20.046 23.942c-.461 0-.836.374-.836.833a.836.836 0 0 0 1.672 0 .835.835 0 0 0-.836-.833zm0 1.162a.33.33 0 1 1 0-.66.33.33 0 0 1 0 .66zM21.01 6.628h-1.928v.504h1.928v-.504z"/><path fill="none" stroke="#ff6b09" stroke-width="1.032" style="stroke:var(--color1,#ff6b09)" d="M31.484 4.767V.517H.516v30.968h30.968v-4.25"/></symbol><symbol id="icon-advantages-3" viewBox="0 0 32 32"><path fill="#ff6b09" style="fill:var(--color1,#ff6b09)" d="M7.582 14.543c0 .23-.356.23-.356 0 0-4.895 4.045-8.866 9.032-8.866 4.989 0 9.032 3.97 9.032 8.866 0 .23-.354.23-.354 0 0-3.309-5.54-3.311-5.54 0 0 .23-.365.23-.365 0 0-3.301-5.548-3.301-5.548 0 0 .23-.365.23-.365 0 0-3.294-5.537-3.317-5.537 0zm5.569-1.285c.096-1.905.401-3.612.844-4.916.354-1.036.802-1.823 1.309-2.265-3.808.408-6.891 3.242-7.58 6.917 1.311-1.856 4.339-1.708 5.427.264zm5.853-.086c-.098-1.831-.394-3.47-.821-4.72-1.1-3.234-2.751-3.234-3.851 0-.426 1.25-.721 2.888-.821 4.72 1.183-1.974 4.309-1.974 5.493 0zm5.787-.178c-.687-3.675-3.77-6.509-7.58-6.917.51.442.955 1.229 1.309 2.265.444 1.304.748 3.012.844 4.916 1.094-1.982 4.13-2.099 5.427-.264zM15.073 18.6v-1.8c-.331.216-.591.549-.591.955 0 .396.264.657.591.846zm.356.559c-.633-.285-1.301-.618-1.301-1.405 0-.812.629-1.218 1.301-1.522v2.927zM17.444 21.316v1.821c.335-.218.597-.553.597-.959 0-.4-.269-.67-.597-.862zm-.354-.561c.635.289 1.307.632 1.307 1.423 0 .814-.633 1.22-1.307 1.522v-2.945z"/><path fill="#ff6b09" style="fill:var(--color1,#ff6b09)" d="M17.444 14.751c1.458.331 2.957 1.402 2.957 3.004 0 1.371-2.36 1.321-2.36 0 0-.408-.262-.743-.597-.959v2.562c1.35.433 2.962 1.21 2.962 2.821 0 1.603-1.499 2.673-2.962 3.001-.006 1.526-2.367 1.524-2.371-.002-.832-.188-1.554-.569-2.077-1.074-.548-.532-.872-1.199-.872-1.926 0-1.35 2.358-1.35 2.358 0 0 .404.26.737.591.952v-2.56c-1.339-.425-2.96-1.224-2.96-2.821 0-1.603 1.499-2.673 2.96-3.001.006-1.526 2.367-1.524 2.371.002zm-2.015.004v.278c-1.388.27-2.962 1.143-2.962 2.717 0 1.513 1.727 2.191 2.962 2.566v3.382c-.667-.299-1.301-.703-1.301-1.52 0-.892-1.65-.892-1.65 0 0 .63.286 1.212.768 1.677.612.594 1.354.877 2.183 1.038v.28c0 1.074 1.661 1.074 1.661 0v-.278c1.392-.272 2.96-1.145 2.96-2.717 0-1.528-1.723-2.185-2.96-2.568v-3.38c.67.299 1.307.703 1.307 1.524 0 .869 1.648.904 1.648 0 0-1.572-1.565-2.447-2.955-2.719v-.28c0-1.074-1.661-1.074-1.661 0z"/><path fill="none" stroke="#ff6b09" stroke-width="1.032" style="stroke:var(--color1,#ff6b09)" d="M31.484 4.767V.517H.516v30.968h30.968v-4.25"/></symbol><symbol id="icon-campfire-problem" viewBox="0 0 28 32"><path d="m29 22-2-3c-2-2-2-7-2-8h-1c-3 3-2 7-1 8v2c1 4-1 6-1 6h-1l-1-8v-2c0-4-3-7-4-8-2-3-2-8-2-8l-1-1c-4 2-3 8-3 11l1 2v8l-1 2-1-1c0-6-6-8-6-8v1c-1 0-1 0 0 0v3l-1 6c-2 4-1 8-1 8 1 11 16 13 25 7l3-3c3-4 1-11 0-14zM5 32l-1 1v-4h1v3zm0-5-1-1v-2l1-1 1 1-1 3zM24 9V8l1-2h1v1l-1 1-1 1zM1 12l-1-2V9h1l1 3H1z"/><path d="m29 22-2-3c-2-2-2-7-2-8h-1c-3 3-2 7-1 8v2c1 4-1 6-1 6h-1l-1-8v-2c0-4-3-7-4-8-2-3-2-8-2-8l-1-1c-4 2-3 8-3 11l1 2v8l-1 2-1-1c0-6-6-8-6-8v1c-1 0-1 0 0 0v3l-1 6c-2 4-1 8-1 8 1 11 16 13 25 7l3-3c3-4 1-11 0-14zM5 32l-1 1v-4h1v3zm0-5-1-1v-2l1-1 1 1-1 3zM24 9V8l1-2h1v1l-1 1-1 1zM1 12l-1-2V9h1l1 3H1z"/></symbol><symbol id="icon-how-do-we-1" viewBox="0 0 30 32"><path d="m30 5-5-5H3v30l2 2h1l2-2 2 2 2-2 2 2h1l2-2 2 2 2-2 2 2 2-2 2 2h1l2-2V5zm-5-4 4 4h-4V1zm4 28-1 2-2-2h-1l-2 2-2-2-2 2-2-2h-1l-2 2-2-2-2 2-2-2-2 2-2-2V1h21v4h4v24zM6 3h10H6z"/><path d="M6 5h15V4H6v1zm0 2v9h22V7l-1-1H6v1zm6 0h15v2H12V7zm0 3h15v2H12v-2zm0 3h15v2H12v-2zM6 7h5v2H6V7zm0 3h5v2H6v-2zm0 3h5v2H6v-2zm21 4H6v10-3h5v3h1v-3h15v3h1v-9l-1-1zm-16 6H6v-2h5v2zm0-3H6v-2h5v2zm16 3H12v-2h15v2zm0-3H12v-2h15v2zM2 0v30V0zM0 0v30h1V0H0z"/></symbol><symbol id="icon-how-do-we-2" viewBox="0 0 31 32"><path d="M29 0H14l-2 2v6L0 13v1l2 1v9l-2 2v1h4v-1l-2-2v-9l2 1v4c0 2 4 3 8 3v8l2 1h15l2-2V2l-2-2zM3 26H1a1 1 0 0 1 2 0zm26 5H14a1 1 0 0 1-1-1v-2h18v2l-2 1zm2-4H13v-4c2 0 8-1 8-3v-4l3-2v-1L13 8V5h18v22zm-19-9-8 1 1-3 7-2 8 2v3l-8-1zm1-16 1-1h15l2 1v2H13V2zm-1 7 11 5-2 1-9-1-8 1-3-1 11-5zM4 20l8-1 8 1s-3 2-8 2-8-1-8-2z"/><path d="m22 28-2 1 2 2 1-2-1-1zm0 2-1-1h1v1zm1-28h-3v1h3V2z"/></symbol><symbol id="icon-how-do-we-3" viewBox="0 0 43 32"><path d="M19 5H5v1h14V5zm0 3H7v1h12V8zm0 4H5v1h14v-1zm0 4H7v1h12v-1zm0 4H5v1h14v-1zm0 4H7v1h12v-1zM38 5H24v1h14V5zm-2 3H24v1h12V8zm2 4H24v1h14v-1zm-2 4H24v1h12v-1zm2 4H24v1h14v-1zm-2 4H24v1h12v-1z"/><path d="M43 3h-2V1l-1-1H25l-3 2-4-2H3L2 1v2H1L0 4v27l1 1h42V3zM25 1h15v28H22V4c0-2 1-3 3-3zM3 1h15c2 0 3 1 3 3v25H3V1zM1 4h1v25l1 1h16l2 1H1V4zm41 27H22l2-1h16l1-1V4h1v27z"/></symbol><symbol id="icon-how-do-we-4" viewBox="0 0 32 32"><path d="M2 13v3a11 11 0 0 0 9 2 12 12 0 0 0 10 0c3 1 6 0 9-2v-3l-1-1-3-3 1-4c1-2-1-4-4-4l-3 1a4 4 0 0 0-4-2h-1l-3 2-3-1C5 1 3 5 6 9l-3 3-1 1zm19 4a11 11 0 0 1-12-1v-3l5-3 2 1 2-1 4 3h1v3l-2 1zm8-5v3c-2 2-4 2-7 2l1-1h1v-3l-1-1-2-2 2 1 2-1 4 2zM23 2l3 2-2-1h-1l-2 2-1-1V3l3-1zm-3 4 4-2 2 1c0 2-1 5-3 5l-3-3V6zm1 3-1 1-1-1 1-1 1 1zm-2-3c0 2-2 4-3 4-2 0-3-3-3-5l4-2 3 1-1 2zm-3-5c3 0 3 2 3 2l-2-1h-1a4 4 0 0 1-4 2c1-2 2-3 4-3zm-4 7 1 1-1 1V8zM9 2l3 1v1l-2-1H9L6 5c0-2 1-3 3-3zM6 6l3-2 2 1 1 2-2 2-1 1c-2 0-3-3-3-4zm-3 7v-1l4-2 2 1 2-1-2 2-1 1v3h1l1 1c-3 0-5 0-7-2v-2z"/><path d="M31 21h-2l-6 3c0-2-1-2-2-2h-4c-1-2-4-3-6-3H7v-1H0v12h7v-2a28 28 0 0 0 9 4c5 0 14-7 15-8a2 2 0 0 0 0-3zM6 29H1V19h5v10zm24-6v1a50 50 0 0 1-14 7l-9-4v-7h4l6 2v1h4a1 1 0 0 1 0 2h-7v1h7l2-1 6-3h2v1h-1zM16 12v1-1zm0 2v1-1zm0 2v1-1z"/></symbol><symbol id="icon-how-do-we-5" viewBox="0 0 29 32"><path d="M0 32h28c1-3 0-8-2-11l-4-2v-2l-3-3v-1l1-1 1-2a1 1 0 0 0-1-1c2-4 0-7-1-7-2-2-6-2-6-2-4 1-6 5-5 9l-1 1 1 2 1 1 1 3v1l-8 4s-2 3-2 11zm28-1h-5v-2l3-7 2 9zm-7-13c0 2-1 1-2 3v-2l-1-3v-1l3 3zm-10-2a5 5 0 0 0 6 1l1 2h-1l-3 4-4-5h1v-2zm-1-4V7l2-2 6 5v2c0 3-1 4-4 4a4 4 0 0 1-4-4zm-1 7 5 5 4-3-4 5-5-7zm11-8V9v2zM14 1l5 2 1 5-2-3 1 4-7-5s-2 0-3 2v2c-1-3 0-6 4-7zM9 9v2l-1-1 1-1zM8 19l6 8 5-5 1 1v-2l2-1 3 2-3 7v2H7v-2l-4-7 5-3zm-5 3 3 7v2H1c0-2 0-6 2-9z"/></symbol><symbol id="icon-how-do-we-6" viewBox="0 0 37 32"><path d="M2 30h13l3 2h1l3-2h13c1 0 2-1 2-3V5l-2-2h-1V2l-2-2H5L4 2v1H2L0 5v22c0 2 1 3 2 3zm30-5H19V7c3 0 6 3 6 6h-1a1 1 0 0 0-1 1l-1 6 1 1h3l2-1v-4c1-1 0-2-1-2h-1v-1c0-4-3-7-7-8V2h13v23zm-7-10 2 1-1 3v1l-2-1 1-4zM5 2h13v3c-4 1-7 4-7 8v1h-1l-1 1v5a2 2 0 0 0 3 1h2l1-1-1-6h-1v-1c0-3 2-6 5-6v18H5V2zm7 13 1 4-2 1v-1l-1-3 2-1zM2 5V4h2v21l1 2h27l2-2V4h1l1 1v22l-1 1H22l-1 1-2 1h-1l-2-1-1-1H2V5z"/></symbol><symbol id="icon-teacher" viewBox="0 0 40 32"><path d="m35 2-4 2-8 6-7 7-2 4L4 6 0 17l13 15 4-7 1-2 2-3A81 81 0 0 1 32 5a29 29 0 0 1 8-5l-5 2z"/></symbol><symbol id="icon-campfire-guarant" viewBox="0 0 23 32"><path d="m22 17-1-2c-2-2-2-6-2-6l-1-1c-2 2-1 5-1 7l1 1-1 4h-1v-7l-4-6-2-7C7 2 7 6 8 8v8l-1 1v-1c0-4-4-5-4-5l-1 1v2l-1 4-1 6c1 9 13 10 20 5l2-1c3-4 1-9 0-11zM4 24l-1 1v-3h1v2zm0-4v1l-1-1v-2h1v2zM19 7l-1-1 1-2h1v1l-1 1v1zM1 9 0 8V7h1l1 2H1z"/></symbol><symbol id="icon-arrow-lf" viewBox="0 0 54 32"><path d="M52 14a2 2 0 1 1 0 4v-4zM1 17v-2L13 2a2 2 0 1 1 3 3L5 16l11 11a2 2 0 1 1-3 3L1 17zm51 1H2v-4h50v4z"/></symbol><symbol id="icon-arrow-rt" viewBox="0 0 54 32"><path d="M2 14a2 2 0 1 0 0 4v-4zm51 3v-2L41 2a2 2 0 1 0-3 3l11 11-11 11a2 2 0 1 0 3 3l12-13zM2 18h50v-4H2v4z"/></symbol><symbol id="icon-facebook" viewBox="0 0 31 32"><path d="M26 2H5L3 3 2 5v22l1 2 2 1h8V20H9v-4h4v-3c0-4 2-6 6-6h3v4h-2l-2 2v3h4l-1 4h-3v10h8l2-1 1-2V5l-1-2-2-1z"/></symbol><symbol id="icon-insta-white" viewBox="0 0 32 32"><path d="M1 10V8c1-4 3-7 8-7h14c5 0 8 3 8 8v14c0 5-3 8-8 8H9c-5 0-8-3-8-8V10zm15 18h7c3 0 6-2 6-5V9c0-3-3-5-6-5H9C6 4 4 6 3 9v14c1 3 3 5 6 5h7z"/><path d="M16 8a8 8 0 1 0 0 16 8 8 0 0 0 0-16zm0 13a5 5 0 1 1 0-10 5 5 0 0 1 0 10zM26 8a2 2 0 1 1-4 0 2 2 0 0 1 4 0z"/></symbol><symbol id="icon-phone" viewBox="0 0 32 32"><path d="M4.366.002A1.849 1.849 0 0 0 3.06.638L.628 3.421c.004-.008-.01-.007-.078.095a.624.624 0 0 0-.085.172c-.99 3.283-.326 6.894 1.29 10.329 1.618 3.435 4.196 6.722 7.157 9.419 2.96 2.697 6.301 4.807 9.486 5.854 3.186 1.047 6.274 1.033 8.563-.696a.599.599 0 0 0 .07-.063c.06-.062.062-.07.052-.06l.01-.013 2.42-2.771c.695-.796.64-2.048-.126-2.772l-5.742-5.437a1.842 1.842 0 0 0-2.663.13l-2.598 2.975c-2.11-.636-3.913-1.714-5.647-3.356-1.734-1.643-2.936-3.41-3.743-5.537l2.597-2.974c.696-.796.64-2.048-.124-2.772L5.724.507A1.836 1.836 0 0 0 4.366.002Zm.054 1.22a.687.687 0 0 1 .507.196l5.743 5.438c.296.28.316.727.047 1.035l-2.872 3.285a.64.64 0 0 0-.117.624c.872 2.475 2.278 4.506 4.212 6.338 1.935 1.831 4.008 3.097 6.458 3.766a.569.569 0 0 0 .587-.18l2.872-3.287a.67.67 0 0 1 .994-.048l5.744 5.437c.296.28.315.727.046 1.034l-2.401 2.748c-1.878 1.403-4.524 1.482-7.487.508-2.975-.977-6.204-3.002-9.062-5.606-2.858-2.604-5.345-5.784-6.874-9.031C1.304 10.264.755 7.015 1.587 4.15l2.346-2.683a.692.692 0 0 1 .487-.245Z"/></symbol></defs></svg>